# xmcd
#
# Track frame offsets:
#	150
#	15227
#	30304
#	43150
#	59458
#	71997
#	84997
#	96262
#	107997
#	120045
#	132249
#	153136
# Disc length: 2247 seconds
# Revision: 1
# Processed by: cddbd v1.5.2PL0 Copyright (c) Steve Scherf et al.
#
# Submitted via: libkcddb 0.31
#
DISCID=8f08c50c
DTITLE=Snooks Eaglin - Out Of Nowhere
DYEAR=1989
DGENRE=Blues
TTITLE0=Oh Lawdy, My Baby
TTITLE1=Lipstick Traces
TTITLE2=Young Girl
TTITLE3=Out Of Nowhere
TTITLE4=You're So Fine
TTITLE5=Mailman Blues
TTITLE6=Wella Wella Baby-La
TTITLE7=Kiss Of Fire
TTITLE8=It's Your Thing
TTITLE9=Playgirl
TTITLE10=West Side Baby
TTITLE11=Cheeta
EXTD=
EXTT0=
EXTT1=
EXTT2=
EXTT3=
EXTT4=
EXTT5=
EXTT6=
EXTT7=
EXTT8=
EXTT9=
EXTT10=
EXTT11=
PLAYORDER=
